<?xml version="1.0" encoding="utf-8"?>
<!-- Generator: Adobe Illustrator 19.1.0, SVG Export Plug-In . SVG Version: 6.00 Build 0)  -->
<!DOCTYPE svg PUBLIC "-//W3C//DTD SVG 1.1//EN" "http://www.w3.org/Graphics/SVG/1.1/DTD/svg11.dtd">
<svg version="1.1" id="Layer_1" xmlns="http://www.w3.org/2000/svg" xmlns:xlink="http://www.w3.org/1999/xlink" x="0px" y="0px"
	 viewBox="0 0 40 40" style="enable-background:new 0 0 40 40;" xml:space="preserve">
<style type="text/css">
	.st0{fill:none;stroke:#FFCE06;stroke-width:2;stroke-miterlimit:10;}
	.st1{fill:none;stroke:#BCBEC0;stroke-width:2;stroke-miterlimit:10;}
	.st2{display:none;fill:none;stroke:#BCBEC0;stroke-width:1.25;stroke-miterlimit:10;}
	.st3{fill:none;stroke:#FFCE06;stroke-width:2;stroke-linecap:round;stroke-miterlimit:10;}
</style>
<g id="Layer_1_1_">
	<g>
		<g>
			<path class="st0" d="M20,1.2c3.3,0,8.8,0.3,11.3,4c2.1,3.1,2.2,9.2,0.7,11.8c-2.1,3.6-5.2,6.4-6.2,8.8S25,30.7,25,30.7"/>
			<path class="st1" d="M20,30.7h5v6.8c0,0-2.4,1.5-5,1.5"/>
			<path class="st2" d="M23.2,36.9c0,0,0.1-9.8,2.1-14.7c1-2.6,3.8-5.9,5.1-8.6c1.3-2.5,1.2-4.7,1.2-6.6c0-4.8-4.7-5.2-4.7,0
				c0,6.3-4.3,6.2-4.4,0S20.9,1,20,1"/>
		</g>
	</g>
	<g>
		<g>
			<path class="st0" d="M20,1.2c-3.3,0-8.8,0.3-11.3,4C6.5,8.2,6.5,14.4,8,17c2.1,3.6,5.2,6.4,6.2,8.8s0.8,4.9,0.8,4.9"/>
			<path class="st1" d="M20,30.7h-5v6.8c0,0,2.4,1.5,5,1.5"/>
			<path class="st2" d="M16.8,36.9c0,0-0.1-9.8-2.1-14.7c-1-2.6-3.8-5.9-5.1-8.6C8.3,11.1,8.4,8.9,8.4,7c0-4.8,4.7-5.2,4.7,0
				c0,6.3,4.3,6.2,4.4,0s1.6-6,2.5-6"/>
		</g>
	</g>
</g>
<g id="Layer_2">
</g>
<path class="st3" d="M14.5,10c0,0-0.7,0.6-0.7,2.5s0.7,2.5,0.7,2.5"/>
<path class="st3" d="M18,10c0,0-0.7,0.6-0.7,2.5S18,15,18,15"/>
<path class="st3" d="M21.5,10c0,0-0.7,0.6-0.7,2.5s0.7,2.5,0.7,2.5"/>
<path class="st3" d="M25,10c0,0-0.7,0.6-0.7,2.5S25,15,25,15"/>
</svg>
