<?xml version="1.0" encoding="utf-8"?>
<!-- Generator: Adobe Illustrator 19.1.0, SVG Export Plug-In . SVG Version: 6.00 Build 0)  -->
<!DOCTYPE svg PUBLIC "-//W3C//DTD SVG 1.1//EN" "http://www.w3.org/Graphics/SVG/1.1/DTD/svg11.dtd">
<svg version="1.1" id="Layer_1" xmlns="http://www.w3.org/2000/svg" xmlns:xlink="http://www.w3.org/1999/xlink" x="0px" y="0px"
	 viewBox="0 0 40 40" enable-background="new 0 0 40 40" xml:space="preserve">
<path fill="none" stroke="#BE1E2D" stroke-width="2" stroke-linecap="round" stroke-linejoin="round" stroke-miterlimit="10" d="
	M14.3,27.9c-1.5-1.5,0.1-5.6,3.7-9.1s7.6-5,9.1-3.5s7.7,20.7,7.7,20.7S15.8,29.5,14.3,27.9z"/>
<path fill="none" stroke="#BE1E2D" stroke-width="2" stroke-linecap="round" stroke-linejoin="round" stroke-miterlimit="10" d="
	M20.3,30.7c0,0-0.7-2.7,1.9-8.3c2.1-4.8,5.4-6.4,5.4-6.4"/>
<path fill="none" stroke="#BE1E2D" stroke-width="2" stroke-linecap="round" stroke-linejoin="round" stroke-miterlimit="10" d="
	M26,32.3c0,0-0.3-2.8,0.7-6.3c1.2-4.1,2.9-4.9,2.9-4.9"/>
<line fill="none" stroke="#27AAE1" stroke-width="2" stroke-linecap="round" stroke-linejoin="round" stroke-miterlimit="10" x1="4.8" y1="18.7" x2="5.2" y2="19.9"/>
<line fill="none" stroke="#27AAE1" stroke-width="2" stroke-linecap="round" stroke-linejoin="round" stroke-miterlimit="10" x1="12.7" y1="3.9" x2="13.7" y2="5.1"/>
<line fill="none" stroke="#27AAE1" stroke-width="2" stroke-linecap="round" stroke-linejoin="round" stroke-miterlimit="10" x1="14.5" y1="16.9" x2="13.2" y2="16.1"/>
<path fill="none" stroke="#F7941E" stroke-width="2" stroke-linecap="round" stroke-linejoin="round" stroke-miterlimit="10" d="
	M9.1,21.9c-0.6,0.7-0.9,2,0,3c0.9,1.1,0.9,2.3,0,3.2"/>
<path fill="none" stroke="#F7941E" stroke-width="2" stroke-linecap="round" stroke-linejoin="round" stroke-miterlimit="10" d="
	M6.2,4C4.6,5,5.1,7.8,7,8.6s2.4,3.1,0.7,4.4"/>
<path fill="none" stroke="#F7941E" stroke-width="2" stroke-linecap="round" stroke-linejoin="round" stroke-miterlimit="10" d="
	M20.4,5.1C21.5,5.8,21.8,8,20,8.8c-1.6,0.7-2.6,2.2-1.7,4.1"/>
</svg>
