<?xml version="1.0" encoding="utf-8"?>
<!-- Generator: Adobe Illustrator 19.1.0, SVG Export Plug-In . SVG Version: 6.00 Build 0)  -->
<!DOCTYPE svg PUBLIC "-//W3C//DTD SVG 1.1//EN" "http://www.w3.org/Graphics/SVG/1.1/DTD/svg11.dtd">
<svg version="1.1" id="Layer_1" xmlns="http://www.w3.org/2000/svg" xmlns:xlink="http://www.w3.org/1999/xlink" x="0px" y="0px"
	 viewBox="0 0 40 40" enable-background="new 0 0 40 40" xml:space="preserve">
<path fill="#FFFFFF" stroke="#58BC76" stroke-width="2" stroke-linejoin="round" stroke-miterlimit="10" d="M36.8,5.2
	c0,0-5.1-0.4-10.9,0.1S15.5,7.1,15.5,7.1s-0.8,2.3-0.6,7.6c0.2,4.8,1.1,7.5,1.1,7.5s1.7,0.4,4.4,0.4c1.9,0.1,4.6-0.1,4.6-0.1
	l0.4,13.9l2.7-0.3l-0.4-13.7c0,0,1.2-0.1,4.5-0.5c3.2-0.4,5.4-1.2,5.4-1.2s0.8-2.1,0.6-7.7C38,7.5,36.8,5.2,36.8,5.2z"/>
<path fill="#FFFFFF" stroke="#F387A4" stroke-width="2" stroke-linejoin="round" stroke-miterlimit="10" d="M1.9,7.9
	c0,0,5.3-1.8,11.8-2.9s11.6-1,11.6-1s1.4,2.2,2.7,8c1.2,5.2,0.9,8.4,0.9,8.4s-1.7,0.9-4.6,1.7c-2,0.6-5,1.1-5,1.1l3.4,15l-3,0.4
	L16.5,24c0,0-1.3,0.3-4.9,0.7c-3.6,0.5-6.1,0.2-6.1,0.2s-1.4-2-2.8-8.1S1.9,7.9,1.9,7.9z"/>
</svg>
