<?xml version="1.0" encoding="utf-8"?>
<!-- Generator: Adobe Illustrator 19.1.0, SVG Export Plug-In . SVG Version: 6.00 Build 0)  -->
<!DOCTYPE svg PUBLIC "-//W3C//DTD SVG 1.1//EN" "http://www.w3.org/Graphics/SVG/1.1/DTD/svg11.dtd">
<svg version="1.1" id="Layer_1" xmlns="http://www.w3.org/2000/svg" xmlns:xlink="http://www.w3.org/1999/xlink" x="0px" y="0px"
	 viewBox="0 0 40 40" enable-background="new 0 0 40 40" xml:space="preserve">
<circle fill="none" stroke="#F15A29" stroke-width="2" stroke-miterlimit="10" cx="20.1" cy="19.9" r="16.4"/>
<circle fill="none" stroke="#F15A29" stroke-width="2" stroke-miterlimit="10" cx="20.1" cy="19.9" r="8.6"/>
<path display="none" fill="none" stroke="#C49A6C" stroke-miterlimit="10" d="M6.4,16.5c0.7-2.7,2.4-6.4,3.2-8.3
	c0.8-1.9,1.1-2.9,3.9-3.8s8.4-0.9,10.2,0.7c1.7,1.6,4.8,3.6,6.1,4.8s4.8,6.4,5.6,9.2c0.6,2.4,0.5,5.4,0.1,7.3s-1.8,3.5-3.1,3.8
	c-2,0.4-7.1,2.9-8.8,3.2c-1.8,0.3-8,0.5-10.3,1.3c-2.1,0.7-3.4-2-4.5-3c-1.1-1-2.6-3.4-2.7-4.9S5.7,19.1,6.4,16.5z"/>
<path fill="#FFFFFF" stroke="#CCCCCC" stroke-width="2" stroke-miterlimit="10" d="M24.2,8.4c0.7-1.7,2.6-4.5,3.5-4.3
	c0.9,0.2,2.9,0.9,5.1,3.3c2.3,2.4,2.9,3.8,2.9,4.4c0,0.6-2.5,2.3-3.9,3c-1.4,0.7-4.6,1.7-5.1,1.6c-0.5-0.1-0.7-0.9-1.7-2
	c-1-1.1-1.9-1.5-1.9-1.9S23.6,9.8,24.2,8.4z"/>
<path fill="#FFFFFF" stroke="#CCCCCC" stroke-width="2" stroke-miterlimit="10" d="M8.2,21.6c-1.8,0.2-5.2,0-5.4-0.9
	c-0.3-0.9-0.7-2.9,0.3-6.1c0.9-3.2,1.9-4.4,2.4-4.7s3.3,1,4.6,1.9c1.3,0.9,3.8,3.1,3.9,3.6s-0.4,1-0.9,2.5c-0.4,1.4-0.3,2.4-0.7,2.6
	C12.1,20.8,9.8,21.4,8.2,21.6z"/>
<path fill="#FFFFFF" stroke="#CCCCCC" stroke-width="2" stroke-miterlimit="10" d="M27.5,29.3c1.1,1.5,2.6,4.5,2,5.2
	c-0.6,0.7-2.2,2-5.4,2.8c-3.2,0.8-4.8,0.6-5.3,0.3c-0.5-0.3-0.8-3.4-0.6-4.9c0.1-1.6,0.8-4.9,1.2-5.2c0.4-0.3,1.1-0.1,2.6-0.5
	c1.4-0.3,2.2-0.9,2.6-0.7C24.9,26.3,26.6,28.1,27.5,29.3z"/>
</svg>
