<?xml version="1.0" encoding="utf-8"?>
<!-- Generator: Adobe Illustrator 19.1.0, SVG Export Plug-In . SVG Version: 6.00 Build 0)  -->
<!DOCTYPE svg PUBLIC "-//W3C//DTD SVG 1.1//EN" "http://www.w3.org/Graphics/SVG/1.1/DTD/svg11.dtd">
<svg version="1.1" xmlns="http://www.w3.org/2000/svg" xmlns:xlink="http://www.w3.org/1999/xlink" x="0px" y="0px"
	 viewBox="0 0 120 120" style="enable-background:new 0 0 120 120;" xml:space="preserve">
<style type="text/css">
	.st0{display:none;}
	.st1{display:inline;fill:#F0F0F0;}
	.st2{display:inline;opacity:0.43;fill:url(#SVGID_1_);}
	.st3{display:inline;fill:#FFFFFF;}
	.st4{display:inline;}
	.st5{fill:#D1EBF2;}
	.st6{display:inline;fill:url(#SVGID_2_);}
	.st7{display:inline;fill:none;stroke:#A0A0A0;stroke-miterlimit:10;}
	.st8{display:none;fill:none;stroke:#662D91;stroke-linecap:round;stroke-linejoin:round;stroke-miterlimit:10;}
	.st9{fill:#9C7DB7;stroke:#8665A8;stroke-width:2;stroke-miterlimit:10;}
	.st10{fill:#C1A084;stroke:#A88A6C;stroke-width:2;stroke-miterlimit:10;}
	.st11{fill:#FFFFFF;}
</style>
<g id="Layer_2" class="st0">
	<rect class="st1" width="120" height="120"/>
	<g>
		<linearGradient id="SVGID_1_" gradientUnits="userSpaceOnUse" x1="60.7679" y1="93.6089" x2="60.7679" y2="36.2656">
			<stop  offset="0" style="stop-color:#FFF33B"/>
			<stop  offset="4.010540e-02" style="stop-color:#FEE72E"/>
			<stop  offset="0.1171" style="stop-color:#FED51B"/>
			<stop  offset="0.1964" style="stop-color:#FDCA10"/>
			<stop  offset="0.2809" style="stop-color:#FDC70C"/>
			<stop  offset="0.6685" style="stop-color:#F3903F"/>
			<stop  offset="1" style="stop-color:#E93E3A"/>
		</linearGradient>
		<path class="st2" d="M71.6,47.6c0,0,10.2-4.3,17.8,0c7.5,4.3,8.8,8.8,8.8,8.8s17.6,0.6,17.8,16S95.2,87.8,95.2,87.8
			s-4.2,3.6-10.2,3.5s-9-2.8-9-2.8s-4.6,3-9.3,3c-4.6,0-6.7-1.1-6.7-1.1s-7.2,3.8-12.5,3.2c-5.3-0.6-14.4-5-14.4-5S21.3,95,11.6,87
			S5,68.4,13.4,63.8c8.3-4.6,18.7-5.9,18.7-5.9S31,45.2,39.3,41s12.7-6.3,21.5-3.5C69.5,40.2,71.6,47.6,71.6,47.6z"/>
		<path class="st3" d="M99.3,53.7c-1.8-3.9-5.5-7.1-9.2-9c-5.7-2.8-12-2.7-17.7-0.3c-4.7-9.6-16.5-13.1-27-9.7
			C35.7,38,28.9,46.4,29,55.9c-13.2,0.6-30,10-25.2,25.2c4,12.6,18.1,13.2,29.9,10.2c3.6,2.9,7.8,4.7,12.8,4.7
			c4.9,0.1,9.5-1.4,13.9-3.4c4.5,3.7,11.1,1.9,15.9-1.2c2.7,1.5,5.7,2.4,9.3,2.3c3.3-0.1,6.4-1.2,9-2.9c10.6,1.8,22.1-4.9,23.8-16
			C120.2,63.1,110,54.3,99.3,53.7z M113.2,75.6c-1.9,6.4-7.9,10.2-14.2,10.6c0.4-0.6,0.8-1.3,1.1-2c1.3-2.8-3-5-4.3-2.2
			c-1.9,4.2-5.9,6.7-10.5,6.9c-1.9,0.1-3.5-0.2-5-0.8c0.9-2-2-4.4-4-2.6c-3.4,3-10.2,7-13.9,2.4c-1.1-1.3-2.6-0.9-3.4,0.2
			c-3.5,1.7-7.2,3-11.1,3.2C41.6,91.5,37,88.5,33,84c-2.1-2.3-5.2,1.3-3.2,3.6c-8,1.6-16.4,0.9-20.5-6c-3.4-5.7,0.3-12.5,5-16.1
			c4.4-3.4,9.9-5,15.4-4.9c0.3,1.3,0.7,2.5,1.3,3.8c1.3,2.8,5.8,1.3,4.5-1.6c-4.3-9.5,0.5-19,9.9-22.8c9.1-3.7,21.8-1.1,23.9,10
			c0.5,3,5.3,2.7,4.8-0.3c0-0.2-0.1-0.4-0.1-0.6c3.9-1.8,8.2-2.2,12.4-0.6c4.5,1.7,10.4,6.5,9.2,11.9c-0.7,3,4,4,4.7,1
			c0.2-0.9,0.3-1.7,0.3-2.6C108.6,59.8,115.8,66.8,113.2,75.6z"/>
	</g>
	<g>
		<g class="st4">
			<g>
				<path class="st5" d="M7.8,87.7c5.8-4.6,13.7-6.1,20.9-7.4c8.3-1.5,16.7-2.3,24.9-4.4c7-1.8,14.1-4.6,19.2-9.9
					c5.8-6.1,7.7-14.3,7.6-22.6c0-3.2-5-3.2-5,0c0.5,38.7-49.8,23.8-71.1,40.6C1.8,86.2,5.3,89.7,7.8,87.7L7.8,87.7z"/>
			</g>
		</g>
		<g class="st4">
			<g>
				<path class="st5" d="M65.8,86.2c21.8-0.1,41.4-12.6,50.3-32.6c1.3-2.9-3-5.5-4.3-2.5C103.6,69.5,86,81.2,65.8,81.2
					C62.6,81.2,62.6,86.2,65.8,86.2L65.8,86.2z"/>
			</g>
		</g>
		<g class="st4">
			<g>
				<path class="st5" d="M89.7,64.6c7.1-8.7,11.8-18.8,13.7-29.9c0.5-3.1-4.3-4.5-4.8-1.3C96.9,43.6,92.8,53,86.2,61.1
					C84.2,63.5,87.7,67.1,89.7,64.6L89.7,64.6z"/>
			</g>
		</g>
	</g>
	<linearGradient id="SVGID_2_" gradientUnits="userSpaceOnUse" x1="60" y1="110.5" x2="60" y2="49.5">
		<stop  offset="0.4439" style="stop-color:#FFFFFF;stop-opacity:0"/>
		<stop  offset="0.5403" style="stop-color:#E1E1E1;stop-opacity:0.1734"/>
		<stop  offset="0.6521" style="stop-color:#C6C6C6;stop-opacity:0.3745"/>
		<stop  offset="0.7656" style="stop-color:#B3B3B3;stop-opacity:0.5786"/>
		<stop  offset="0.8808" style="stop-color:#A7A7A7;stop-opacity:0.7857"/>
		<stop  offset="1" style="stop-color:#A3A3A3"/>
	</linearGradient>
	<polygon class="st6" points="2.7,74.5 11.7,61.8 28,83.3 47.2,56.2 62.2,76.3 76.2,60.3 81.3,65.1 92.9,49.5 109,69.3 111.8,67.5 
		117.3,74.5 117.3,110.5 2.7,110.5 	"/>
	<polygon class="st3" points="85.1,60 89.1,58.2 91.1,59.6 93.2,57.6 95.9,60 98.3,58.3 100.9,59.4 92.9,49.5 	"/>
	<polyline class="st7" points="2.7,74.5 11.7,61.8 28,83.3 47.2,56.2 62.2,76.3 76.2,60.3 81.3,65.1 92.9,49.5 109,69.3 111.8,67.5 
		117.3,74.5 	"/>
</g>
<g id="Layer_1">
	<circle class="st8" cx="60" cy="60" r="34"/>
	<g>
		<path class="st9" d="M60,5C26,5,23.2,26.9,23.2,38.1c0,25.6,11.7,28.4,20.8,39.2c5.2,6.2,7.9,14.5,7.9,14.5h16.2
			c0,0,2.7-8.4,7.9-14.5c9.1-10.7,20.8-13.5,20.8-39.2C96.8,26.9,94,5,60,5z"/>
		<path class="st10" d="M66.1,115H53.9c-1.1,0-2-0.9-2-2v-9.1h16.2v9.1C68.1,114.1,67.2,115,66.1,115z"/>
		<g>
			<circle class="st11" cx="40.6" cy="29.6" r="2.6"/>
			<path class="st11" d="M58.5,48.8c0,1.4-1.2,2.6-2.6,2.6s-2.6-1.2-2.6-2.6V41l-3.2,2.6c-0.1,0.1-0.2,0.2-0.4,0.3
				c-0.4,0.3-0.9,0.5-1.4,0.5c-0.6,0-1.2-0.2-1.7-0.6L43.2,41v7.7c0,1.4-1.2,2.6-2.6,2.6S38,50.2,38,48.8V35.4
				c0-1.4,1.2-2.6,2.6-2.6c0.8,0,1.4,0.3,1.9,0.9l5.7,4.7l5.8-4.9c0.1-0.1,0.2-0.1,0.2-0.2c0.5-0.3,1-0.5,1.5-0.5
				c1.4,0,2.6,1.2,2.6,2.6V48.8z"/>
			<circle class="st11" cx="55.9" cy="29.6" r="2.6"/>
			<circle class="st11" cx="64.1" cy="29.6" r="2.6"/>
			<path class="st11" d="M82,48.8c0,1.4-1.2,2.6-2.6,2.6c-1.4,0-2.6-1.2-2.6-2.6V41l-3.2,2.6c-0.1,0.1-0.2,0.2-0.4,0.3
				c-0.4,0.3-0.9,0.5-1.4,0.5c-0.6,0-1.2-0.2-1.7-0.6L66.8,41v7.8c0,1.4-1.2,2.6-2.6,2.6s-2.6-1.2-2.6-2.6V35.5
				c0-1.4,1.2-2.6,2.6-2.6c0.8,0,1.4,0.3,1.9,0.8l5.7,4.7l5.8-4.9c0.1-0.1,0.2-0.1,0.2-0.2c0.5-0.3,1-0.5,1.5-0.5
				c1.4,0,2.6,1.2,2.6,2.6V48.8z"/>
			<circle class="st11" cx="79.4" cy="29.6" r="2.6"/>
		</g>
	</g>
</g>
</svg>
