<?xml version="1.0" encoding="utf-8"?>
<!-- Generator: Adobe Illustrator 18.0.0, SVG Export Plug-In . SVG Version: 6.00 Build 0)  -->
<!DOCTYPE svg PUBLIC "-//W3C//DTD SVG 1.1//EN" "http://www.w3.org/Graphics/SVG/1.1/DTD/svg11.dtd">
<svg version="1.1" id="Layer_1" xmlns="http://www.w3.org/2000/svg" xmlns:xlink="http://www.w3.org/1999/xlink" x="0px" y="0px"
	 viewBox="0 0 60 60" enable-background="new 0 0 60 60" xml:space="preserve">
<g>
	<path fill="#646565" d="M30,7C17.3,7,7,17.3,7,30c0,12.7,10.3,23,23,23s23-10.3,23-23C53,17.3,42.7,7,30,7z M35.3,45.4
		c-4.2,0-4.8-2.1-8.3-2.1c-1.6,0-3.5,0.8-5.5,1.8l-1.4-2.9c3.9-1.8,6.1-4.3,6.1-7.1c0-1-0.3-1.9-0.7-2.8h-6.7V30h4.9
		c-1.7-1.9-3.6-3.9-3.6-7.3c0-5.1,4.7-9.1,10.3-9.1c4.2,0,7.6,1.9,9.3,5.2l-3.1,1.8c-0.8-1.9-3-3.8-5.9-3.8c-3.5,0-6.6,2.2-6.6,5.9
		c0,3.4,2.2,5.1,3.7,7.3H35v2.5h-5.6c0.2,0.6,0.3,1.2,0.3,2c0,2.8-1.6,4.8-3.5,6.1c0.6-0.2,1.6-0.4,2.4-0.4c3,0,4.2,1.9,6.8,1.9
		c2,0,3.7-1,4.4-1.8l1.7,3.1C40.2,44.5,38.2,45.4,35.3,45.4z"/>
	<path fill="#646565" d="M30,0C13.4,0,0,13.4,0,30s13.4,30,30,30s30-13.4,30-30S46.6,0,30,0z M30,56C15.6,56,4,44.4,4,30
		C4,15.6,15.6,4,30,4s26,11.6,26,26C56,44.4,44.4,56,30,56z"/>
</g>
</svg>
