<?xml version="1.0" encoding="utf-8"?>
<!-- Generator: Adobe Illustrator 19.1.0, SVG Export Plug-In . SVG Version: 6.00 Build 0)  -->
<!DOCTYPE svg PUBLIC "-//W3C//DTD SVG 1.1//EN" "http://www.w3.org/Graphics/SVG/1.1/DTD/svg11.dtd">
<svg version="1.1" id="Layer_1" xmlns="http://www.w3.org/2000/svg" xmlns:xlink="http://www.w3.org/1999/xlink" x="0px" y="0px"
	 viewBox="0 0 48 48" enable-background="new 0 0 48 48" xml:space="preserve">
<path fill="#FFFFFF" d="M24,0C10.7,0,0,10.7,0,24s10.7,24,24,24s24-10.7,24-24S37.3,0,24,0z M35.1,20.7L24.7,31.8
	c-0.2,0.2-0.5,0.3-0.7,0.3s-0.5-0.1-0.7-0.3L12.9,20.7c-0.4-0.4-0.4-1,0-1.4c0.4-0.4,1-0.4,1.4,0L24,29.6l9.7-10.3
	c0.4-0.4,1-0.4,1.4,0C35.5,19.6,35.5,20.3,35.1,20.7z"/>
</svg>
