<?xml version="1.0" encoding="utf-8"?>
<!-- Generator: Adobe Illustrator 19.1.0, SVG Export Plug-In . SVG Version: 6.00 Build 0)  -->
<!DOCTYPE svg PUBLIC "-//W3C//DTD SVG 1.1//EN" "http://www.w3.org/Graphics/SVG/1.1/DTD/svg11.dtd">
<svg version="1.1" id="Layer_1" xmlns="http://www.w3.org/2000/svg" xmlns:xlink="http://www.w3.org/1999/xlink" x="0px" y="0px"
	 viewBox="502 -152 900 125" style="enable-background:new 502 -152 900 125;" xml:space="preserve">
<style type="text/css">
	.st0{fill:url(#SVGID_1_);}
	.st1{fill:#FFFFFF;}
	.st2{fill:none;stroke:#A7A9AC;stroke-width:2;stroke-miterlimit:10;}
</style>
<linearGradient id="SVGID_1_" gradientUnits="userSpaceOnUse" x1="952" y1="60.3" x2="952" y2="164.9" gradientTransform="matrix(1 0 0 -1 0 16)">
	<stop  offset="0" style="stop-color:#FFFFFF;stop-opacity:0"/>
	<stop  offset="5.171231e-02" style="stop-color:#F2F2F2;stop-opacity:8.877808e-02"/>
	<stop  offset="0.1831" style="stop-color:#D6D6D6;stop-opacity:0.3143"/>
	<stop  offset="0.3155" style="stop-color:#C2C2C2;stop-opacity:0.5416"/>
	<stop  offset="0.4484" style="stop-color:#B6B6B6;stop-opacity:0.7697"/>
	<stop  offset="0.5825" style="stop-color:#B3B3B3"/>
	<stop  offset="1" style="stop-color:#999999"/>
</linearGradient>
<polyline class="st0" points="510,-44.3 540.2,-78.6 551.7,-67.2 578.7,-96.8 603.2,-70.6 610.4,-77.1 636.5,-52.1 673.9,-91.6 
	681.7,-84.9 739,-148.9 793.1,-96.6 804.5,-107.8 837.8,-75 887.7,-122.3 916.4,-95.3 933.5,-111.4 1009.5,-44.3 1057.2,-87.6 
	1071.1,-75.2 1121,-122.3 1151.5,-90.4 1165.4,-103.6 1175.1,-96.6 1218.8,-141.1 1233.4,-125.1 1241.7,-131.3 1275.7,-96.6 
	1306.2,-125.1 1336.7,-89.7 1345.8,-99.4 1394,-44.3 "/>
<polygon class="st1" points="878.1,-113.2 887.8,-105.6 897.4,-113.2 887.7,-122.3 "/>
<polygon class="st1" points="1100.4,-102.9 1108,-98.6 1116.7,-105.6 1122.3,-102.1 1133.3,-109.5 1121,-122.3 "/>
<polygon class="st1" points="1197.5,-119.4 1206,-112.2 1212,-115.8 1221.7,-107.9 1226.7,-111.9 1231.7,-107.9 1241.7,-115.6 
	1248.3,-110.4 1255.7,-117 1241.7,-131.3 1233.4,-125.1 1218.8,-141.1 "/>
<polygon class="st1" points="1298.4,-117.8 1305.3,-112.9 1312.5,-117.8 1306.2,-125.1 "/>
<polygon class="st1" points="701.2,-106.6 709.2,-100.6 717.5,-106.6 730.8,-95.3 745.2,-106.6 753,-101 762,-109.3 770.2,-102.3 
	779.9,-109.3 739,-148.9 "/>
<polyline class="st2" points="510,-44.3 540.2,-78.6 551.7,-67.2 578.7,-96.8 603.2,-70.6 610.4,-77.1 636.5,-52.1 673.9,-91.6 
	681.7,-84.9 739,-148.9 793.1,-96.6 804.5,-107.8 837.8,-75 887.7,-122.3 916.4,-95.3 933.5,-111.4 1009.5,-44.3 1057.2,-87.6 
	1071.1,-75.2 1121,-122.3 1151.5,-90.4 1165.4,-103.6 1175.1,-96.6 1218.8,-141.1 1233.4,-125.1 1241.7,-131.3 1275.7,-96.6 
	1306.2,-125.1 1336.7,-89.7 1345.8,-99.4 1394,-44.3 "/>
</svg>
