<?xml version="1.0" encoding="utf-8"?>
<!-- Generator: Adobe Illustrator 19.1.0, SVG Export Plug-In . SVG Version: 6.00 Build 0)  -->
<!DOCTYPE svg PUBLIC "-//W3C//DTD SVG 1.1//EN" "http://www.w3.org/Graphics/SVG/1.1/DTD/svg11.dtd">
<svg version="1.1" id="Layer_1" xmlns="http://www.w3.org/2000/svg" xmlns:xlink="http://www.w3.org/1999/xlink" x="0px" y="0px"
	 viewBox="0 0 300 300" style="enable-background:new 0 0 300 300;" xml:space="preserve">
<style type="text/css">
	.st0{fill:none;stroke:#FFFFFF;stroke-width:3;stroke-linecap:round;stroke-linejoin:round;stroke-miterlimit:10;}
	.st1{display:none;}
</style>
<g id="Colours">
	<polygon id="Red" class="st0" points="102.6,55.1 150.5,7.2 198.4,55.1 	"/>
	<polyline id="Orange_2_" class="st0" points="102.6,55.1 55.1,102.6 246.3,102.6 198.4,55.1 102.6,55.1 55.1,102.6 55.1,102.6 
		55.1,102.6 	"/>
	<polyline id="Yellow" class="st0" points="7.2,150.5 293.8,150.5 246.3,102.6 55.1,102.6 7.2,150.5 	"/>
	<polyline class="st0" points="55.1,198.4 246.3,198.4 293.8,150.5 7.2,150.5 55.1,198.4 	"/>
	<polyline class="st0" points="102.6,246.3 198.4,246.3 246.3,198.4 55.1,198.4 102.6,246.3 	"/>
	<polyline class="st0" points="150.5,293.8 198.4,246.3 102.6,246.3 150.5,293.8 	"/>
</g>
<g id="Guides" class="st1">
</g>
</svg>
