<?xml version="1.0" encoding="utf-8"?>
<!-- Generator: Adobe Illustrator 19.1.0, SVG Export Plug-In . SVG Version: 6.00 Build 0)  -->
<!DOCTYPE svg PUBLIC "-//W3C//DTD SVG 1.1//EN" "http://www.w3.org/Graphics/SVG/1.1/DTD/svg11.dtd">
<svg version="1.1" id="Layer_1" xmlns="http://www.w3.org/2000/svg" xmlns:xlink="http://www.w3.org/1999/xlink" x="0px" y="0px"
	 viewBox="0 0 16 16" style="enable-background:new 0 0 16 16;" xml:space="preserve">
<style type="text/css">
	.st0{fill:#F0F0F0;}
</style>
<path class="st0" d="M11.8,10.8c-0.6,0-1.1,0.2-1.4,0.6L4.3,8.3c0-0.1,0-0.2,0-0.3c0-0.1,0-0.2,0-0.3l6.1-3.1
	c0.4,0.4,0.9,0.6,1.4,0.6c1.2,0,2.1-0.9,2.1-2.1S13,1,11.8,1S9.7,1.9,9.7,3.1c0,0.1,0,0.2,0,0.3L3.6,6.5C3.3,6.1,2.8,5.9,2.2,5.9
	C1,5.9,0.1,6.8,0.1,8s0.9,2.1,2.1,2.1c0.6,0,1.1-0.2,1.4-0.6l6.1,3.1c0,0.1,0,0.2,0,0.3c0,1.2,0.9,2.1,2.1,2.1s2.1-0.9,2.1-2.1
	S13,10.8,11.8,10.8z"/>
</svg>
