<?xml version="1.0" encoding="utf-8"?>
<!-- Generator: Adobe Illustrator 19.1.0, SVG Export Plug-In . SVG Version: 6.00 Build 0)  -->
<!DOCTYPE svg PUBLIC "-//W3C//DTD SVG 1.1//EN" "http://www.w3.org/Graphics/SVG/1.1/DTD/svg11.dtd">
<svg version="1.1" id="Layer_1" xmlns="http://www.w3.org/2000/svg" xmlns:xlink="http://www.w3.org/1999/xlink" x="0px" y="0px"
	 viewBox="0 0 300 300" style="enable-background:new 0 0 300 300;" xml:space="preserve">
<style type="text/css">
	.st0{fill:#FFFFFF;}
</style>
<path class="st0" d="M278.3,223.4l-116-164c-6-8.5-18.5-8.5-24.5,0l-116,164c-7,9.9,0.1,23.7,12.2,23.7h232
	C278.2,247,285.3,233.3,278.3,223.4z M194,195.6l-35.4-24.9h15.2l-4.3-12.7c0,0-4.6-13.6-16.1-13.6c-11.5,0-16.1,13.6-16.1,13.6
	l-15.7,46.3H91.8l30.3-46c0,0,11.6-21.1,31.2-21.1c19.6,0,31.2,21.1,31.2,21.1l8.2,12.4H206L194,195.6z"/>
</svg>
