<?xml version="1.0" encoding="utf-8"?>
<!-- Generator: Adobe Illustrator 19.1.0, SVG Export Plug-In . SVG Version: 6.00 Build 0)  -->
<!DOCTYPE svg PUBLIC "-//W3C//DTD SVG 1.1//EN" "http://www.w3.org/Graphics/SVG/1.1/DTD/svg11.dtd">
<svg version="1.1" id="Layer_1" xmlns="http://www.w3.org/2000/svg" xmlns:xlink="http://www.w3.org/1999/xlink" x="0px" y="0px"
	 viewBox="0 0 16 16" style="enable-background:new 0 0 16 16;" xml:space="preserve">
<style type="text/css">
	.st0{fill:#646464;}
</style>
<g>
	<path class="st0" d="M8,2.8C5.1,2.8,2.8,5.1,2.8,8c0,2.9,2.4,5.2,5.2,5.2c2.9,0,5.2-2.4,5.2-5.2C13.2,5.1,10.9,2.8,8,2.8z M8.5,8
		v0.3L8.2,8.4L6.1,9.7C5.8,9.8,5.5,9.7,5.4,9.5S5.3,9,5.6,8.8l1.9-1.1V4c0-0.3,0.2-0.5,0.5-0.5S8.5,3.7,8.5,4V8z"/>
	<path class="st0" d="M15,8c0-1.9-0.8-3.6-2-4.9V0.5h-1v1.8C10.9,1.5,9.5,1,8,1S5.1,1.5,4,2.3V0.5H3v2.6C1.8,4.4,1,6.1,1,8
		c0,1.9,0.8,3.6,2,4.9v2.6h1v-1.7C5.1,14.5,6.5,15,8,15s2.9-0.5,4-1.3v1.7h1v-2.6C14.2,11.6,15,9.9,15,8z M1.8,8
		c0-3.4,2.8-6.2,6.2-6.2s6.2,2.8,6.2,6.2s-2.8,6.2-6.2,6.2S1.8,11.4,1.8,8z"/>
</g>
</svg>
