<?xml version="1.0" encoding="utf-8"?>
<!-- Generator: Adobe Illustrator 19.1.0, SVG Export Plug-In . SVG Version: 6.00 Build 0)  -->
<!DOCTYPE svg PUBLIC "-//W3C//DTD SVG 1.1//EN" "http://www.w3.org/Graphics/SVG/1.1/DTD/svg11.dtd">
<svg version="1.1" id="Layer_1" xmlns="http://www.w3.org/2000/svg" xmlns:xlink="http://www.w3.org/1999/xlink" x="0px" y="0px"
	 viewBox="0 0 16 16" style="enable-background:new 0 0 16 16;" xml:space="preserve">
<style type="text/css">
	.st0{fill:#646464;}
</style>
<path class="st0" d="M9.5,8v2.5C9.5,11.3,8.8,12,8,12s-1.5-0.7-1.5-1.5V8l-6.6,3.3l8,4l8-4L9.5,8z"/>
<path class="st0" d="M10,2.7c0-1.1-0.9-2-2-2s-2,0.9-2,2c0,0.9,0.6,1.7,1.5,1.9v5.8h0c0,0,0,0,0,0C7.5,10.8,7.7,11,8,11
	s0.5-0.2,0.5-0.5c0,0,0,0,0,0h0V4.7C9.4,4.5,10,3.7,10,2.7z"/>
</svg>
